Coordinates
version=1
nRows=12
nColumns=24
inDegrees=yes

Units are S.I. units (second, meters, Newtons, ...)
Angles are in degrees.

endheader
time	pelvis_tilt	pelvis_list	pelvis_rotation	pelvis_tx	pelvis_ty	pelvis_tz	hip_flexion_r	hip_adduction_r	hip_rotation_r	knee_angle_r	ankle_angle_r	subtalar_angle_r	mtp_angle_r	hip_flexion_l	hip_adduction_l	hip_rotation_l	knee_angle_l	ankle_angle_l	subtalar_angle_l	mtp_angle_l	lumbar_extension	lumbar_bending	lumbar_rotation
      0.90400000	     -4.04952208	     -3.54095906	      5.77802901	     -0.39424729	      0.90570182	      0.29346256	     15.59636652	      9.59473180	     -2.20905366	    -23.02041169	     10.30244766	     -2.22130066	      3.92712618	     15.21254779	     -7.68339700	     -3.76133183	    -62.16488146	      7.69506185	     -4.12539397	      4.93299135	     -0.04067773	      5.98498946	     -2.31754200
      0.90816667	     -3.99940294	     -3.39993116	      5.55537144	     -0.38932416	      0.90675561	      0.29383758	     14.91597208	      9.55758736	     -1.91533413	    -22.51150977	     10.31669261	     -2.19516304	      3.92444800	     15.76483439	     -7.51462744	     -4.04268039	    -61.66137830	      8.08452076	     -4.25315486	      4.78040622	     -0.13997679	      5.84285886	     -1.99317619
      0.91233333	     -3.95459926	     -3.26416909	      5.31622492	     -0.38442418	      0.90776224	      0.29423817	     14.24248395	      9.52252877	     -1.61087808	    -21.99454722	     10.29145262	     -2.16217822	      3.92332986	     16.31023520	     -7.35866539	     -4.33986957	    -61.11155638	      8.44209423	     -4.36119014	      4.55498918	     -0.23501690	      5.72616755	     -1.60326836
      0.91650000	     -3.92232474	     -3.10809139	      5.05369908	     -0.37954122	      0.90868896	      0.29466020	     13.60654730	      9.45708138	     -1.31929045	    -21.53327215	     10.32798597	     -2.08043398	      3.92544429	     16.85025064	     -7.19349490	     -4.68605185	    -60.51434826	      8.77786180	     -4.51346527	      4.48905025	     -0.30119092	      5.56029853	     -1.45446080
      0.92066667	     -3.81681894	     -2.97097028	      4.81028103	     -0.37465368	      0.90970739	      0.29509940	     12.85569944	      9.42189274	     -0.99437423	    -20.98613815	     10.34076159	     -2.09373905	      3.93031537	     17.30263067	     -7.05764371	     -5.00276960	    -59.86319110	      9.00297396	     -4.63505605	      4.31867162	     -0.49367312	      5.41074760	     -0.94562322
      0.92483333	     -3.75449105	     -2.82266989	      4.52957276	     -0.36981240	      0.91060018	      0.29556560	     12.18078663	      9.36464979	     -0.65283688	    -20.49624324	     10.34704747	     -2.05522975	      3.93761270	     17.78412981	     -6.91577690	     -5.36247338	    -59.17130824	      9.23552123	     -4.77299238	      4.17272182	     -0.63194981	      5.26637287	     -0.60133258
      0.92900000	     -3.70675089	     -2.67814296	      4.22306331	     -0.36498374	      0.91140646	      0.29607318	     11.53894883	      9.30301519	     -0.33311568	    -20.03408307	     10.33430615	     -1.97032901	      3.94410738	     18.26895715	     -6.80065414	     -5.77715351	    -58.44729835	      9.45128806	     -4.92142642	      4.08209666	     -0.73421872	      5.11051954	     -0.34950810
      0.93316667	     -3.60351196	     -2.53638811	      3.94900670	     -0.36014269	      0.91227792	      0.29652613	     10.80855870	      9.24088262	     -0.00749908	    -19.51202183	     10.36231700	     -1.96792694	      3.95827305	     18.67843459	     -6.67271475	     -6.13157852	    -57.65756552	      9.58152793	     -5.06965169	      3.92570160	     -0.90748069	      4.97980211	      0.15042231
      0.93733333	     -3.54597696	     -2.41900073	      3.64667159	     -0.35534495	      0.91299598	      0.29704264	     10.14812644	      9.19912843	      0.32837367	    -19.01405405	     10.32111954	     -1.92799873	      3.98691652	     19.13963159	     -6.59451017	     -6.53227104	    -56.86461652	      9.73289730	     -5.20613213	      3.66140172	     -1.02975794	      4.85321707	      0.65542850
      0.94150000	     -3.47174917	     -2.28259360	      3.34043313	     -0.35055765	      0.91369673	      0.29754287	      9.47881876	      9.12724156	      0.65150079	    -18.54010900	     10.33802280	     -1.86475466	      4.02137165	     19.55973804	     -6.49363847	     -6.93646639	    -56.01205964	      9.82303627	     -5.37415429	      3.40632087	     -1.17565697	      4.71003839	      1.03949605
      0.94566667	     -3.39264839	     -2.14642287	      3.04015948	     -0.34578357	      0.91435090	      0.29803549	      8.80917401	      9.04761389	      0.96126634	    -18.07403733	     10.39663816	     -1.80101344	      4.04888679	     19.96372164	     -6.39469572	     -7.33782072	    -55.11933829	      9.86727768	     -5.54161014	      3.23418598	     -1.32340936	      4.55153156	      1.36447536
      0.94983333	     -3.32080775	     -2.01997441	      2.72682803	     -0.34102579	      0.91494039	      0.29853100	      8.15539802	      8.97020674	      1.27312408	    -17.61729894	     10.42493494	     -1.72550714	      4.08000079	     20.36224137	     -6.31154493	     -7.75133337	    -54.19204233	      9.89460985	     -5.71759881	      3.06350428	     -1.46369372	      4.41924788	      1.75584646
